<?xml version="1.0" encoding="utf-8"?>
<!-- Generator: Adobe Illustrator 27.5.0, SVG Export Plug-In . SVG Version: 6.00 Build 0)  -->
<svg version="1.1" id="Layer_1" xmlns="http://www.w3.org/2000/svg" xmlns:xlink="http://www.w3.org/1999/xlink" x="0px" y="0px"
	 viewBox="0 0 166 49" style="enable-background:new 0 0 166 49;" xml:space="preserve">
<style type="text/css">
	.st0{fill-rule:evenodd;clip-rule:evenodd;fill:#BDBAFA;}
	.st1{fill-rule:evenodd;clip-rule:evenodd;fill:none;}
	.st2{font-family:'Raleway-Bold';}
	.st3{font-size:36px;}
</style>
<g>
	<path class="st0" d="M0,14.1v0.1l28,13.1l28-13.2v0L28,1L0,14.1z M10.1,14.2L28,5.8l17.9,8.4L28,22.6L10.1,14.2L10.1,14.2z
		 M28,32.5L0,19.5v4.8l28,13l28-13v-4.8L28,32.5z M28,42.2L0,29.2V34l28,13l28-13v-4.8L28,42.2z"/>
</g>
<rect x="63.3" y="11.4" class="st1" width="95.2" height="32"/>
<text transform="matrix(1 0 0 1 63.3244 37.6796)" class="st2 st3">Findr</text>
</svg>
